<svg id="Capa_1" data-name="Capa 1" xmlns="http://www.w3.org/2000/svg" xmlns:xlink="http://www.w3.org/1999/xlink" viewBox="0 0 892.46 897.25"><defs><style>.cls-1{fill:url(#Degradado_sin_nombre_12);}.cls-2{fill:url(#Degradado_sin_nombre_12-2);}.cls-3{fill:url(#Degradado_sin_nombre_12-3);}</style><linearGradient id="Degradado_sin_nombre_12" x1="63.77" y1="601.4" x2="794.48" y2="601.4" gradientUnits="userSpaceOnUse"><stop offset="0" stop-color="#01e390"/><stop offset="0.34" stop-color="#01a976"/><stop offset="0.64" stop-color="#007d63"/><stop offset="0.87" stop-color="#006257"/><stop offset="1" stop-color="#005853"/></linearGradient><linearGradient id="Degradado_sin_nombre_12-2" x1="93" y1="667.9" x2="631.48" y2="667.9" xlink:href="#Degradado_sin_nombre_12"/><linearGradient id="Degradado_sin_nombre_12-3" x1="370.37" y1="365.45" x2="956.23" y2="365.45" xlink:href="#Degradado_sin_nombre_12"/></defs><title>isotipo codecta</title><path class="cls-1" d="M63.77,351.47c169-165.67,450.8-156.25,615.56,21.35,157.09,169.33,153.35,455.76-10.61,596.83L603,894.5c62.73-76.25,97.6-167,82.16-271.77-11.33-76.85-45.72-142.62-103.24-195.47C458.47,313.85,297.84,313.08,132.4,425.8Z" transform="translate(-63.77 -72.4)"/><path class="cls-2" d="M393.08,831.75c96.84-37.85,139.79-98.17,128.28-185.17-9.94-75.15-69.47-132.68-146.73-141.8-81.84-9.66-146.3,40-179.67,138.1-1.75,5.15-4.82,9.87-7.66,15.54h-94C85.65,525.07,204.13,404,344.84,398.15c156.62-6.46,285.51,114.79,286.63,269.64,1.07,147.55-96.67,272.14-243.29,270.07Z" transform="translate(-63.77 -72.4)"/><path class="cls-3" d="M955.64,658.5H857.36c-35.91-288.89-197.6-450.35-487-487.36V77.78C639,26.27,972.07,354,955.64,658.5Z" transform="translate(-63.77 -72.4)"/></svg>