<svg id="Capa_1" data-name="Capa 1" xmlns="http://www.w3.org/2000/svg" viewBox="0 0 931.52 742.58"><defs><style>.cls-1{fill:#fc8002;}.cls-2{fill:#fff;}.cls-3{fill:#303030;}</style></defs><title>LOGO</title><path class="cls-1" d="M781.91,516.41c.22-8.69-3.56-13.26-12.64-14.92-22.15-4.05-33.81-18.65-33.49-40.37.31-21.37,12-34.65,34.43-38.61,7.74-1.36,11.48-5.67,11.66-13.24.16-6.81.12-13.63,0-20.44-.36-33.31-24.08-58.78-57.2-60.07-22.67-.88-45.41-.11-68.12-.26-6,0-8,2.72-7.88,8.35.2,7.94,0,15.89,0,23.84,0,6.09-1.09,12.39-8.2,12.81-7.83.45-9.28-6.42-9.73-12.5-.51-6.78-.22-13.62-.24-20.43,0-11.76-.21-12-11.79-12q-67.29,0-134.57,0c-59.62,0-119.24-.09-178.86,0-33,.08-56.06,20.14-61.1,52.46-1.28,8.21-.78,16.43-.74,24.65.05,12,2.57,14.84,14.67,16.47,11.22,1.52,20.69,6.11,27.52,15.21,19.2,25.59,3.93,60.75-28.05,64.84-11.86,1.51-14,3.86-14.17,15.65-.07,7.09-.18,14.2.19,21.28,1.87,35.37,31.9,56.34,60.23,55.77,51.36-1,102.76-.29,154.15-.29v.17c53.94,0,107.88-.13,161.82.14,8.08,0,11.3-2.45,10.78-10.71a180.44,180.44,0,0,1,.37-23.82c.39-5.57,3.21-10.16,9.61-9.65,5.81.46,8,4.88,8,10.26.14,7.67.49,15.36,0,23-.5,8,2.17,11.14,10.56,11,21.28-.46,42.58,0,63.88-.17,30.47-.21,52.63-19.28,57.89-49.5C782.7,535.7,781.66,526,781.91,516.41ZM631.24,411.5c.6-4.5,3.69-7.79,8.84-7.49,5,.29,7.83,3.45,8.32,8.15.46,4.48.1,9,.1,13.59h0c0,4.25.33,8.53-.09,12.74-.47,4.66-3.18,8.17-8.07,8.49s-8.1-3-8.89-7.54A92.16,92.16,0,0,1,631.24,411.5Zm17.41,99.31c-.13,5.22-2.89,8.85-7.95,9.4-5.29.57-8.82-3.3-9.48-7.88a92.73,92.73,0,0,1,.08-27.78c.71-4.48,3.83-7.7,8.93-7.27,4.85.4,7.78,3.46,8.22,8.18.41,4.47.08,9,.08,13.52h.14C648.67,502.92,648.75,506.87,648.65,510.81Z" transform="translate(-65.07 -89.32)"/><path class="cls-1" d="M314.34,311.36c2,.11,4,0,6,0H453.11v.07H586.77c2.55,0,5.11.06,7.65-.17,4.16-.37,5-2.33,2.11-5.43-4.29-4.53-8.84-8.82-13-13.43-3.61-4-5-8.76-.92-13,4.33-4.5,9.21-3.53,13.49.65,4.88,4.75,9.94,9.35,14.45,14.44s8.18,5.73,13.21.46c11-11.5,22.55-22.4,33.58-33.84,10.21-10.58,16.19-23,15.82-38.2C672.68,205.25,663,192.9,651,181.42c-11.23-10.76-11.08-10.92-24.57-3.51-12.34,6.77-26,5.24-36.31-4.06-9.48-8.59-12.3-22.95-6.92-35.24,7.57-17.29,7.57-17.29-5.67-30.53-1.61-1.6-3.16-3.27-4.83-4.8-20.89-19.09-50.47-18.56-70.54,1.34-11.88,11.79-23.54,23.81-35.56,35.47-4,3.84-4.22,6.58,0,10.39,6.29,5.73,12.24,11.88,16.12,19.63,1.67,3.33,3.67,7-.24,10s-8.06,2.6-11.75-.44c-2.83-2.35-5.35-5.07-8-7.68-13.4-13.38-13.49-13.48-26.46.11q-54.62,57.26-109.06,114.67c-5.47,5.76-10.75,11.69-16.1,17.56-1.31,1.43-3.51,2.79-2.71,4.92C309.34,311.77,312.14,311.24,314.34,311.36Zm225-72.3c1.54-3.14,4.4-4.17,8.81-4.08.87.37,3.06.69,4.38,1.92,5.37,5,10.69,10.08,15.59,15.52,3.28,3.62,2.91,7.82-.47,11.44s-7.73,4-11.35.84a207.9,207.9,0,0,1-16.21-16C537.6,246,537.69,242.34,539.3,239.06Zm-34.54-46.53c5.64.07,22.74,17.13,23,22.93.28,6.64-6.24,11.19-12.2,7.72a53.22,53.22,0,0,1-18.39-18.29C493.61,199.13,498.13,192.45,504.76,192.53Z" transform="translate(-65.07 -89.32)"/><path id="curve2" class="cls-2" d="M526.15,542.83c0,17.24-40.86,24-68.1,24s-68.11-6.81-68.11-24c0-37.46,12.39-43.19,35.39-60.34A61.08,61.08,0,0,0,458.05,492a60.46,60.46,0,0,0,8.66-.62,19.88,19.88,0,0,0,5,.62,20.43,20.43,0,0,0,15.85-7.54c1.11-.61,2.18-1.25,3.24-1.91C513.79,499.68,526.15,505.37,526.15,542.83Z" transform="translate(-65.07 -89.32)"/><path id="curve1" class="cls-2" d="M456,484.66a54.55,54.55,0,0,1-43-23.73,13.62,13.62,0,0,0,4.21-9.84V410.23a14.47,14.47,0,0,0-.42-3.41,47.68,47.68,0,0,1,82.58,0,14,14,0,0,0-.43,3.41v40.86c0,.3,0,.6,0,.92a26.37,26.37,0,0,1-5.32,3.87,41,41,0,0,1-6,2.81,20.44,20.44,0,1,0-31.57,26Z" transform="translate(-65.07 -89.32)"/><path id="curve0" class="cls-2" d="M471.67,457.9a13.65,13.65,0,0,1,12.79,8.94,54.09,54.09,0,0,0,12.54-5,29.1,29.1,0,0,0,9.32-7.94,6.63,6.63,0,0,1-.6-2.77V410.23a6.72,6.72,0,0,1,1.15-3.77,54.5,54.5,0,0,0-97.65,0,6.72,6.72,0,0,1,1.15,3.77v40.86a6.82,6.82,0,0,1-6.81,6.81h-6.81a13.64,13.64,0,0,1-13.62-13.62V417a13.64,13.64,0,0,1,13.62-13.62h6.38a61.3,61.3,0,0,1,109.83,0h6.38A13.64,13.64,0,0,1,533,417v27.24a13.66,13.66,0,0,1-13.63,13.62h-6.81c-.23,0-.49,0-.72,0a35.88,35.88,0,0,1-11.47,9.86,61.47,61.47,0,0,1-15.22,6,13.62,13.62,0,1,1-13.45-15.8Z" transform="translate(-65.07 -89.32)"/><path class="cls-3" d="M291.33,831.9h-49.7v-125H203.05v125h-49.7v-125H114.77v125H65.07V666.23H262.46c16.8,0,28.87,12.07,28.87,28.87Z" transform="translate(-65.07 -89.32)"/><path class="cls-3" d="M323,666.23h49.71V831.9H323Z" transform="translate(-65.07 -89.32)"/><path class="cls-3" d="M444,706.93H392.61l14.2-40.7H537.93v40.7H493.67v125H444Z" transform="translate(-65.07 -89.32)"/><path class="cls-3" d="M603.25,706.93H551.89l14.2-40.7H697.21v40.7H653v125h-49.7Z" transform="translate(-65.07 -89.32)"/><path class="cls-3" d="M727.73,666.23H854.12l-14.2,40.7H777.43v25.56h62.49v31.25H777.43v27.45h76.69l-14.2,40.71H727.73Z" transform="translate(-65.07 -89.32)"/><path class="cls-3" d="M883.46,666.23h49.7v125h63.43l-14.2,40.71H883.46Z" transform="translate(-65.07 -89.32)"/></svg>