<svg id="Capa_1" data-name="Capa 1" xmlns="http://www.w3.org/2000/svg" xmlns:xlink="http://www.w3.org/1999/xlink" viewBox="0 0 830.56 188.91"><defs><linearGradient id="Degradado_sin_nombre_12" x1="50.53" y1="165.84" x2="204.38" y2="165.84" gradientUnits="userSpaceOnUse"><stop offset="0" stop-color="#01e390"/><stop offset="0.34" stop-color="#01a976"/><stop offset="0.64" stop-color="#007d63"/><stop offset="0.87" stop-color="#006257"/><stop offset="1" stop-color="#005853"/></linearGradient><linearGradient id="Degradado_sin_nombre_12-2" x1="56.69" y1="179.84" x2="170.06" y2="179.84" xlink:href="#Degradado_sin_nombre_12"/><linearGradient id="Degradado_sin_nombre_12-3" x1="115.09" y1="116.16" x2="238.44" y2="116.16" xlink:href="#Degradado_sin_nombre_12"/></defs><title>LOGO SVG</title><path d="M353.4,221.72A50.89,50.89,0,0,1,322.78,232c-22,0-43.59-14.48-43.59-43.34,0-27.62,19.75-44.38,43.85-44.38,10.55,0,21.47,3.26,29.22,9.16L344,167.15a36.55,36.55,0,0,0-19.39-5.79c-14.9,0-25.86,10.76-25.86,26.74s10.81,26.79,25.65,26.79a35.48,35.48,0,0,0,19.55-6.1Z" transform="translate(-50.53 -54.46)" style="fill:#01e590"/><path d="M360.86,188.2c0-26.17,19-43.91,43.75-43.91,24.62,0,43.66,17.48,43.66,43.66S429.08,232,404.41,232,360.86,214.32,360.86,188.2Zm67.65-.15c0-15.52-10.24-26.48-23.95-26.48s-24.1,10.91-24.1,26.58c0,15.52,10.24,26.74,24,26.74S428.51,203.67,428.51,188.05Z" transform="translate(-50.53 -54.46)" style="fill:#01e590"/><path d="M528,218.25c-6.47,9.16-16.81,13.76-28.19,13.76-22.29,0-38.94-17.53-38.94-43.86,0-24,14.06-43.86,38.94-43.86,10.34,0,20.07,3.57,26.32,11.74V108.5l19.61-3.62V230.3H529.68Zm-1.24-30.36c0-15.1-8.9-26.32-23.12-26.32-13.92,0-23.12,10.7-23.12,26.58,0,16.45,9.83,26.74,23.43,26.74C519.29,214.89,526.79,201.86,526.79,187.89Z" transform="translate(-50.53 -54.46)" style="fill:#01e590"/><path d="M606.65,232c-23.84,0-43.39-15.2-43.39-43.34,0-27.36,18.67-44.38,42.2-44.38,24.52,0,39.77,18.36,39.77,42.41a64.61,64.61,0,0,1-.41,7.24H582.91c1.4,13.76,11,22.09,25,22.09a38.82,38.82,0,0,0,23-7.81l8.84,12.15C631.48,227.67,619.37,232,606.65,232Zm19.5-51.36c-1-11-8-20.22-20.74-20.22-11.9,0-20.48,8.07-22.24,20.22Z" transform="translate(-50.53 -54.46)" style="fill:#01e590"/><path d="M731,221.72A50.88,50.88,0,0,1,700.38,232c-22,0-43.6-14.48-43.6-43.34,0-27.62,19.75-44.38,43.86-44.38,10.55,0,21.46,3.26,29.22,9.16l-8.23,13.7a36.55,36.55,0,0,0-19.39-5.79c-14.9,0-25.86,10.76-25.86,26.74s10.81,26.79,25.65,26.79a35.46,35.46,0,0,0,19.55-6.1Z" transform="translate(-50.53 -54.46)" style="fill:#01e590"/><path d="M737.11,146H751.9V120.09l19.5-3.62V146H792v16.6H771.4v33.72c0,14.9,6.88,17.54,18.31,19.81L787.38,232c-17.48,0-35.48-7.71-35.48-29.89V162.6H737.11Z" transform="translate(-50.53 -54.46)" style="fill:#01e590"/><path d="M878.77,232c-10.65,0-20.27-3.78-21-12.52-5.69,8.8-16.55,12.57-27,12.57-16.34,0-30.05-9.31-30.05-26,0-16.45,13.19-27.67,36.62-27.67a98.52,98.52,0,0,1,18.83,2v-4.29c0-11.33-8.12-15.62-19.24-15.62a52.59,52.59,0,0,0-24.15,6.15l-6-13.13c9.31-6.67,22.18-9.16,33.46-9.16,22.55,0,35.17,9.88,35.17,29.64v31.76c0,6.62,1.29,9.82,5.69,12.2Zm-39.36-39.62c-13.76,0-19.91,4.66-19.91,12.47,0,8.43,7,11.68,14.22,11.68,10.29,0,22.4-6.72,22.4-17v-5.33A85.78,85.78,0,0,0,839.41,192.34Z" transform="translate(-50.53 -54.46)" style="fill:#01e590"/><path d="M50.53,113.22c35.58-34.88,94.92-32.9,129.61,4.5,33.07,35.65,32.29,96-2.24,125.66l-13.84-15.83c13.21-16.05,20.55-35.17,17.3-57.21a67.91,67.91,0,0,0-21.74-41.16c-26-23.88-59.8-24-94.64-.31Z" transform="translate(-50.53 -54.46)" style="fill:url(#Degradado_sin_nombre_12)"/><path d="M119.87,214.34c20.39-8,29.43-20.67,27-39-2.09-15.83-14.63-27.94-30.9-29.86-17.23-2-30.8,8.41-37.83,29.08a27.26,27.26,0,0,1-1.61,3.27H56.76c-1.62-28.08,23.33-53.58,53-54.8,33-1.36,60.11,24.17,60.35,56.77.23,31.07-20.35,57.3-51.22,56.86Z" transform="translate(-50.53 -54.46)" style="fill:url(#Degradado_sin_nombre_12-2)"/><path d="M238.32,177.86h-20.7C210.06,117,176,83.05,115.09,75.25V55.6C171.65,44.75,241.77,113.75,238.32,177.86Z" transform="translate(-50.53 -54.46)" style="fill:url(#Degradado_sin_nombre_12-3)"/></svg>