<svg id="Capa_1" data-name="Capa 1" xmlns="http://www.w3.org/2000/svg" xmlns:xlink="http://www.w3.org/1999/xlink" viewBox="0 0 886.48 724.26"><defs><style>.cls-1{fill:#f4dfb6;}.cls-2{fill:#f7961c;}.cls-3{fill:#f58c1d;}.cls-4{fill:url(#Degradado_sin_nombre_29);}.cls-5{fill:url(#Degradado_sin_nombre_29-2);}.cls-6{fill:#e74831;}.cls-7{fill:url(#Degradado_sin_nombre_30);}.cls-8{fill:#f22222;}.cls-9{fill:#e0dfde;}.cls-10{fill:url(#Degradado_sin_nombre_30-2);}.cls-11{fill:#1c06f2;}</style><linearGradient id="Degradado_sin_nombre_29" x1="658.04" y1="374.45" x2="846.15" y2="299.7" gradientUnits="userSpaceOnUse"><stop offset="0" stop-color="#f22222"/><stop offset="1" stop-color="#ef8f8f" stop-opacity="0.5"/></linearGradient><linearGradient id="Degradado_sin_nombre_29-2" x1="423.25" y1="384.92" x2="839.98" y2="219.33" xlink:href="#Degradado_sin_nombre_29"/><linearGradient id="Degradado_sin_nombre_30" x1="356.62" y1="241.9" x2="548.15" y2="317.97" xlink:href="#Degradado_sin_nombre_29"/><linearGradient id="Degradado_sin_nombre_30-2" x1="373.93" y1="271.31" x2="373.93" y2="271.31" xlink:href="#Degradado_sin_nombre_29"/></defs><title>LOGO SOLVER CUADRADO</title><path class="cls-1" d="M528.07,387.94c-3.87.27-7.53-.59-11.76-2.26A23.27,23.27,0,0,1,525,385l-2.38,1.07C524.37,387,526.5,386.7,528.07,387.94Z" transform="translate(-94.86 -103.74)"/><path class="cls-2" d="M698.85,328.55a2.14,2.14,0,0,1,.7,2.06c-.12,1.13,2.52,2.13.5,3.05s-2.43-1.08-2.84-2.56C698,330.41,697.52,328.89,698.85,328.55Z" transform="translate(-94.86 -103.74)"/><path class="cls-3" d="M595.17,387.78c1.28.73,3.41-.81,3.48,1.44.06,1.79-1.68,1.93-3.17,1.86s-3.7,0-3.74-1.74C591.69,386.81,594.22,388.77,595.17,387.78Z" transform="translate(-94.86 -103.74)"/><path class="cls-4" d="M752.12,337.05v0Z" transform="translate(-94.86 -103.74)"/><path class="cls-5" d="M757.39,296.83c0-5.81.35-11.65-.08-17.42-.84-11.27-1.77-22.48-5.15-33.46-4-13-6.52-26.4-13.14-38.5-2.8-5.13-4.55-10.8-7.81-15.72-2-1.6-2.78-4-3.94-6.09-5.66-10.55-13-20-20.79-28.92a205.54,205.54,0,0,0-31.55-29.86c-7.5-5.59-14.69-11.61-23.24-15.62a1.43,1.43,0,0,0-.45,1.1,5.14,5.14,0,0,0,2.23,3.06c4,2.9,7.09,6.72,10.68,10a212.78,212.78,0,0,1,33.19,39.39,157.29,157.29,0,0,1,20.93,47.82c5.31,20.42,4.1,41.25,1.41,62,.5,3.44-1.45,6.47-1.65,9.79-1.28,1.84.06,4.39-1.65,6.11h0c-1,1.42-.8,3.5-2.4,4.63-1.24,3.43-2.62,6.8-3.7,10.27-2.6,8.32-7.89,15.28-11.44,23.12-.08.63,0,1.27-.07,1.91s.77,1.33,0,1.63c-.39.15-.94-.75-1.54-1-.93.36-.77,1.22-.86,1.95h0c-2.37,1.71-2.73,5.29-6.81,6.44,6.14-13.95,5.9-28.3,5.37-42.69-1.36-2.91-2.58-1.42-3.79.14a3.83,3.83,0,0,1-.16,1.14c-4,8.18-7,16.8-12.54,24.35-4.14,5.63-7.44,11.86-12,17.36a133.49,133.49,0,0,1-26,24.38,140.7,140.7,0,0,1-30.62,16.19c-7.23,2.82-14.82,4.32-22.24,6.44a5,5,0,0,0-1.52.42c-17.29,2.95-34.7,2.87-52.14,2h0c-1.75-1.35-3.91-.82-5.86-1.25-2.63-.64-5.5-.41-7.69-2,1.36-.9,3.07-.42,4.61-.95,16.78-2.37,33.5-5,49.43-11.16-21.92,2.15-43.59,1.47-65-4.13-26.66-7-49.77-20.06-69.11-39.76-2-2.08-3.94-4.31-6.46-5.86L423,309.23c-1.27-.77-2-2.43-4.17-.86-11.6,8.53-22.39,17.78-29.22,30.81A37.42,37.42,0,0,0,386,344c-7.81,15-9.77,31.34-11.54,47.76-.29,2.72,1.31,5,1.4,7.77A118.23,118.23,0,0,0,379,421.93c2.44,10.7,5.25,21.29,10,31.25,1.77,3.68,3.31,7.46,4.95,11.2.16.81.31,1.63.47,2.44,1.85,2.29,4.69,3,7,4.56,15.77,10.25,32.78,17.81,50.59,23.72a234.67,234.67,0,0,0,66,11.88c11.51.4,23.09.82,34.57-1.1,5.93-.05,11.73-1.21,17.56-2.1,9.82-1.51,19.32-4.33,28.83-7.07a107.4,107.4,0,0,0,17.05-6.07h0a18.22,18.22,0,0,0,6.79-2.37c4.81-2.91,10.37-4.27,15-7.48h0a58.53,58.53,0,0,0,13.76-7.87h0a9.92,9.92,0,0,0,1.77-.58c8.57-4.74,16.28-10.66,23.82-16.89,4.83-4,9.82-7.73,13.85-12.57h0c1.62,0,2.52-1.2,3.46-2.22,6.25-6.74,12.49-13.45,18.35-20.55,7.08-8.58,12.45-18.2,18.31-27.53.89-1.46.33-3.56,2.07-4.64l1-1.55c.53-1,.19-2.43,1.54-3l0-.07c.42-.95.82-1.92-.52-2.44-.6-.23-1.46-.39-.86-1.15,1-1.24.82.54,1.38.68s.93.22,1.34-.16a6.48,6.48,0,0,0,1.84-4.44c.72-.7,1.77-1.27,2.09-2.12,3.69-9.71,7.39-19.43,9.44-29.66,1-2.21,0-4.89,1.56-7,1-5.23,2.32-10.4,3.65-15.57C756.64,313.3,758,305.13,757.39,296.83Zm-339,69.53a15.89,15.89,0,0,1,4.25,3.38C420.91,369.05,419.71,367.61,418.38,366.36Zm120.24,42.49c0,.17,0,.32,0,.46a1.89,1.89,0,0,1-.53-.46ZM492,401.31l-.27-.19c-.26-.19-.54-.34-.81-.5l1.69.52A2.78,2.78,0,0,0,492,401.31Z" transform="translate(-94.86 -103.74)"/><path class="cls-6" d="M454.52,359.6c2.18,2,1.8,3.35,1,5C453.49,363.41,454.42,361.89,454.52,359.6Z" transform="translate(-94.86 -103.74)"/><path class="cls-7" d="M524.67,254.13c.72-4.07-66.54-32.67-70.7-35-.52-.29-2.27-.94-2-2.1,1-3.84-.48-2.6-2.4-1.42-1.47.9-3.24.27-4.87.41a82,82,0,0,0-17.59-6.87c-8.45-1.68-16.42-4.93-25.2-5.95-7.33-.85-14.7-3.43-22.17-4.76-1.88,0-3.75,0-5.63-.17-13.92-1-17.06-.89-22.6-.6a83.23,83.23,0,0,0-12.25,1.54,28.74,28.74,0,0,1-9.46,2.93c-1,.09-1.9.39-3.69.64-2.21.3-4.17.93-5,3.28q-3.48,6.59-6.66,14a192,192,0,0,0-14.83,64.57c1,.13,1.56-.64,2.28-1.15,4.31-3.07,8.41-6.54,13-9,13.3-7.15,27.93-10.13,42.66-12.66h0l22.24-1.64h0c9.74-.16,19.5-.75,29.22-.39,13.67.51,27.33.59,41,.44l3,.28c5.41,1.88,11,.67,16.46.75a89.34,89.34,0,0,1,16.16-1.36,13.1,13.1,0,0,0,3.3-.31,28.78,28.78,0,0,1,10.05-1.32c2.48-.52,5.78-1.15,9.69-1.76C520.43,254.67,524.5,255.11,524.67,254.13Z" transform="translate(-94.86 -103.74)"/><path class="cls-8" d="M419.74,147.47a88.16,88.16,0,0,1-13.95-29.28,34.23,34.23,0,0,1-.86-5c-.52-5.28.37-8.33-1.07-9.19-1-.61-2.55.21-3.37.69-7.72,4.5-14.69,15.68-16.69,18.94,0,0-3.79,6.2-7.44,19.44a2.21,2.21,0,0,0,0,1.41,3.07,3.07,0,0,0,1.7,1.49,77.75,77.75,0,0,0,20.68,6.71h0c2.74.72,5,1.22,6.72,1.55a105.93,105.93,0,0,0,15.94,2c2.41.11,4.4.11,5.74.09A86.49,86.49,0,0,1,419.74,147.47Z" transform="translate(-94.86 -103.74)"/><path class="cls-9" d="M553.42,233.41c-.84.2-1.81,0-2.48.76a2.35,2.35,0,0,0,2.58,1.06c2-.21,1.86,1.05,1.88,2.2-.63.49-1.23,1-1.9,1.46a107.8,107.8,0,0,1-37,14.46c-3.77,1.05-6.83,1.76-8.74,2.18-18.63,4.06-34.45,3.93-58.26,3.73-.53,0-3.71,0-7.59-.07s-8-.09-12-.12c-10.68-.08-23.21-.51-29-.61a261,261,0,0,0-42.64,2.25c-13.59,1.93-23.22,4-35.44,8.88a68.71,68.71,0,0,0-23.21,15c-.83,5,0,10.06,0,15.1a150.9,150.9,0,0,0,4.91,41.93c3.55,13,6.43,26.22,12.65,38.35,3.16,6.18,5.45,13,9.49,18.49,5.12,7,9,14.77,14.59,21.55,5.43,6.59,10.64,13.45,16.61,19.52,11.1,11.27,22.89,21.84,36.43,30.23-2.22-5.6-5.34-13.88-8.57-24.1-6.77-21.46-10.53-33.74-10.13-50.23a106.69,106.69,0,0,1,4-26.23A108.18,108.18,0,0,1,390,344.51a128.4,128.4,0,0,1,21.22-24.9,106.54,106.54,0,0,1,13.08-10.3c6.27-4.15,14.72-8.46,27.75-12.89,12.74-4.33,25.72-7.56,39.25-7.77,13.21-.21,26.1-1.39,38.23-7.47a48.39,48.39,0,0,0,17.89-14.86c5.79-8,10.52-16.76,12.29-26.91C560.89,232.59,560.44,231.67,553.42,233.41Z" transform="translate(-94.86 -103.74)"/><path class="cls-8" d="M560,233.85c-.19-.51-.9-.74-1.45-.91a7.61,7.61,0,0,0-5.14.47c-4.49,1.93-18,2.26-28.13-.55a37.27,37.27,0,0,1-13.06-6.23c-4.89-3.7-7.57-7.75-10.41-12.06a78.38,78.38,0,0,1-8.14-15.42,53.33,53.33,0,0,0-6.58-12.92,11.79,11.79,0,0,0-.81-1.12c-4.94-5.88-10-11.5-17.16-15.07A62,62,0,0,0,451.06,164c-4.33-.77-11.05-1.89-19.34-3-15.77-2-20.34-1.71-31.57-4-7.78-1.61-13.33-2.75-20.51-5.94-10.42-4.62-17.94-10.07-21.84-14.24-4.26-4.54-8.75-8.87-13.13-13.3-3.82-6-10.14-10.2-12.65-17.24a1.38,1.38,0,0,0-.86-1c-.67-.16-1.39.79-1.65,1.12-20.93,27-12,82.13-12,82.13,1.14,7.05,2.48,13,3.62,17.5a11.36,11.36,0,0,1,6.2-2.38c4.8-.65,9.52-1.92,14.28-2.94a45.23,45.23,0,0,1,9.43-2.23c3.23-.41,5.94-.09,7.15-.36a9.24,9.24,0,0,1,3.39.16c4.49.74,9.07.39,13.57,1.1a5.5,5.5,0,0,0,4-.53l.16.09c3,1.71,6.41,1.28,9.6,2.11,5,1.32,10,3.08,15.13,3.63a55.86,55.86,0,0,1,11.54,2.19,92.56,92.56,0,0,0,10.95,3.29,64.92,64.92,0,0,1,13.21,4.49c1.56.67,3.05,1.73,4.91,1.34,0,.1.05.19.07.29,2.35,1,6.2,2.65,10.8,5.06,16.52,8.64,33.24,21.75,34.31,22.59,4.78,3.77,9.24,7.11,16.3,9a37.38,37.38,0,0,0,10.62,1.17,4.71,4.71,0,0,0,.75,0c13-2,22.38-5.49,36.19-14C556.9,238.09,560.55,235.28,560,233.85ZM443.64,205.94c-6.37-3.41-13.91-10.24-12.43-13.74,1.64-3.91,14.55-3.79,23.79,1.68,6.26,3.71,12.57,10.9,10.88,14.22C464,211.83,452.15,210.5,443.64,205.94Z" transform="translate(-94.86 -103.74)"/><path class="cls-10" d="M373.93,271.31" transform="translate(-94.86 -103.74)"/><path class="cls-8" d="M209.2,601.73c22.71,0,34.77,8.14,34.77,23.8,0,22.72-14.25,39.16-51.53,39.16H94.86l25.53-26.94H199.8c8.77,0,12.53-2.82,12.53-8.93,0-4.22-3.29-6.26-9.87-6.26H145.29c-23.8,0-34.46-10-34.46-25.22,0-21.3,14.57-37.43,51.22-37.43h91l-25.69,27.25H154.69c-8.77,0-12.53,2.35-12.53,8.61,0,4.23,3.29,6,10,6Z" transform="translate(-94.86 -103.74)"/><path class="cls-8" d="M412,602.51c0,43.07-28.51,63.91-87.25,63.91-45.26,0-68.13-14.1-68.13-44.49,0-43.07,28.5-63.75,87.24-63.75C389.16,558.18,412,572.12,412,602.51Zm-32.58,3.29c0-16.92-11.91-20.36-40.41-20.36-42.14,0-49.81,6.42-49.81,33.36,0,16.92,12.06,20.36,40.25,20.36C371.61,639.16,379.45,632.58,379.45,605.8Z" transform="translate(-94.86 -103.74)"/><path class="cls-8" d="M536.54,637.75l-25.85,26.94H418.12l18.64-104.78H469l-13.79,77.84Z" transform="translate(-94.86 -103.74)"/><path class="cls-8" d="M566.29,559.91l34.93,69.54,61.4-69.54H701l-84,94.76c-5.49,6.11-12.85,11.75-23,11.75-9.71,0-15.19-5.17-18.64-11.75l-48.71-94.76Z" transform="translate(-94.86 -103.74)"/><path class="cls-8" d="M820.49,637.75,794.8,664.69H693.93l18.64-104.78H833.8L808,587.16H740.14l-2.2,12.53H820.8L798.25,623.5H733.72l-2.51,14.25Z" transform="translate(-94.86 -103.74)"/><path class="cls-8" d="M975.39,664.69H932L913.52,637H863.71l-4.86,27.72H826.43l9.4-53.56H927c10.8,0,20.2-5.17,20.2-13.63,0-6.89-6-10.34-16-10.34H840.06l26-27.25h67.35c21.93,0,47.93,6.73,47.93,31.79,0,19-13.63,34.93-33.83,38.85,3,2.66,6.26,6.42,12.06,13.78Z" transform="translate(-94.86 -103.74)"/><path class="cls-11" d="M410.06,796.6,380.11,828H262.54l21.72-122.14H425.57l-30.12,31.77H316.4l-2.56,14.6h96.58L384.13,780H308.91L306,796.6Z" transform="translate(-94.86 -103.74)"/><path class="cls-11" d="M590.62,828H540L518.5,795.68H460.44L454.78,828H417l11-62.44H534.2c12.6,0,23.55-6,23.55-15.88,0-8-6.93-12-18.62-12H432.88l30.3-31.77h78.51c25.56,0,55.86,7.85,55.86,37.06,0,22.09-15.88,40.71-39.43,45.28,3.47,3.1,7.3,7.48,14.06,16.07Z" transform="translate(-94.86 -103.74)"/><path class="cls-11" d="M710.75,796.78h-63.9L641.37,828H603.76l11-62.44H719.88c13.14,0,21.17-6.75,21.17-16.25,0-7.12-5.66-11.68-16.25-11.68H619.64l30.68-31.77H727c34,0,52.58,15.88,52.58,39.25C779.58,775.42,753.1,796.78,710.75,796.78Z" transform="translate(-94.86 -103.74)"/></svg>