<svg id="Capa_1" data-name="Capa 1" xmlns="http://www.w3.org/2000/svg" viewBox="0 0 798.02 870.39"><defs><style>.cls-1{fill:#8e8e8e;}.cls-2{fill:#1e52e2;}</style></defs><title>LOGO</title><path class="cls-1" d="M521.07,90.3c1.38,5.73.91,11.57,1.11,17.37,1.6,47.09,5.1,94,13.84,140.38,3.24,17.15,7.51,34,14.82,50,4.54,9.92,11.38,18.48,16.52,28.06,12.86,24,22.93,49.07,28.59,75.71,4.21,19.84-2.38,36.49-18.55,48.48-16.37,12.13-34.19,12.75-52.34,3.54a29,29,0,0,1-3.87-2.45,6.82,6.82,0,0,1,.1-11.47c9.48-6.65,15-16.07,18.35-26.76,2.84-8.94-.28-16.72-8.81-21.4-14.11-7.75-28.46-7.62-42.33.7-7.8,4.68-10.3,12.32-7.58,21,3.36,10.81,9.23,19.91,18.5,26.65,4,2.88,3.62,8.43-.62,11.46-25.9,18.51-64,5.18-73.49-25.73-3.63-11.76-2-23.31,1.4-34.76,8.51-28.55,19.3-56.07,36-81,10.55-15.8,15.33-33.92,19.45-52.16,6.37-28.23,9.49-56.94,12.19-85.71,2.55-27.27,3-54.63,4.72-81.94ZM460.88,424.91a7.29,7.29,0,1,0,7.46,7.15A7.45,7.45,0,0,0,460.88,424.91Zm98.36,0a7.29,7.29,0,1,0-.29,14.57,7.29,7.29,0,1,0,.29-14.57ZM458.4,406a7.48,7.48,0,0,0-7.08-7.49,7.26,7.26,0,0,0-7.24,7.29,7.18,7.18,0,0,0,7,7.44A7.3,7.3,0,0,0,458.4,406Zm110.54,7.24a7.37,7.37,0,0,0-.1-14.73,7.48,7.48,0,0,0-7.13,7.44A7.3,7.3,0,0,0,568.94,413.21Z" transform="translate(-142.72 -90.3)"/><path class="cls-2" d="M357,278.4c1.63,4.76,1.68,9.63,2.46,14.34,6.2,37.42,20,71.76,42,102.68,3.7,5.2,4.38,10.22,4.49,16.48.46,25.63,12.54,44.85,34.79,57.49a10.26,10.26,0,0,1,5.66,8c2.42,13.11,4.37,26.16,3.38,39.59-1.39,18.91-12.11,33.59-30.24,39.11-23.95,7.3-48.08,7.11-71.65-1.4-26-9.38-39.77-29.56-45.53-55.62C296,470.26,299,441.63,305.4,413.2c6.05-26.84,17.18-51.92,27.17-77.38,6.93-17.64,14.23-35.15,21.43-52.69C354.65,281.54,354.8,279.54,357,278.4Z" transform="translate(-142.72 -90.3)"/><path class="cls-2" d="M663.9,277.87c2.66,6.45,5.13,12.33,7.51,18.25,13.23,32.93,27.57,65.44,38.45,99.26a237.09,237.09,0,0,1,10.94,61.24c.82,16.8-.12,33.34-4.93,49.47-9.32,31.3-30.73,48.86-62.71,53.49-17.39,2.51-34.81,2.26-51.77-3.23-19.16-6.21-29.67-20.39-31.11-40.45-1-14.09,1.49-27.71,3.94-41.4.47-2.64,2.34-3.71,4.42-4.82,18.49-9.93,30.13-25.12,34.39-45.71,1.17-5.65,2.2-11.45.86-17.29-.74-3.21.88-5.59,2.61-8a249,249,0,0,0,35.23-69.27A262.55,262.55,0,0,0,662.19,282,5.35,5.35,0,0,1,663.9,277.87Z" transform="translate(-142.72 -90.3)"/><path class="cls-2" d="M647.22,246.86c-.41,48-11.48,90.07-35.54,128.44-.83,1.32-1.15,3.69-3.16,3.4-1.63-.23-1.64-2.42-2.09-3.81a326.6,326.6,0,0,0-36.76-77.76c-8.25-12.7-11.54-27.6-14.82-42.24-6.3-28.1-9.53-56.64-12.13-85.28-2.13-23.62-3.06-47.29-4.08-71-.15-3.66,1.29-4.1,4.43-3.15,45.12,13.62,77,41.54,93.27,86.27C644.36,203.75,647,226.58,647.22,246.86ZM589,253.71c11.59.06,20.08-8.31,20.09-19.78a20,20,0,0,0-19.52-20.21A20.36,20.36,0,0,0,569.1,233.6,19.6,19.6,0,0,0,589,253.71Z" transform="translate(-142.72 -90.3)"/><path class="cls-2" d="M372.89,246.38c.44-24.93,4.25-52,16.2-77.45,16.31-34.74,43.26-57.48,79-70.44,3.16-1.15,6.42-2,9.6-3.11,2.5-.85,3.93-.27,3.79,2.57-.89,18.33-1.55,36.67-2.78,55-1,15.24-2.36,30.48-4.23,45.64-3.53,28.68-7.35,57.35-17.4,84.71-1.85,5-3.8,10.05-6.81,14.51-16.08,23.77-27.59,49.68-36.44,76.88-.49,1.51-.47,3.95-2.33,4.11s-2.25-2.22-3.1-3.59a229.62,229.62,0,0,1-34.66-108.54C373.33,260.83,373.05,255,372.89,246.38Zm58,7.33c11.41,0,20.13-8.62,20.08-19.9a20,20,0,1,0-40-.11C411,245.23,419.38,253.68,430.93,253.71Z" transform="translate(-142.72 -90.3)"/><path class="cls-1" d="M558.14,477c-21.5,23.45-74.49,23.49-95.78.46,1.47-1.31,3.21-.67,4.78-.58,14.32.81,27.64-2.31,39.8-10,1.76-1.12,3.33-1.87,5.44-.49,13,8.57,27.45,11.55,42.87,10.41A21.12,21.12,0,0,1,558.14,477Z" transform="translate(-142.72 -90.3)"/><path class="cls-2" d="M142.72,801.34V664.73h37V766h83.23v35.31Z" transform="translate(-142.72 -90.3)"/><path class="cls-2" d="M278.7,801.34V664.73H409.84v35.1H315.48V766h94.57v35.31Zm49-54V718.11h80.7v29.22Z" transform="translate(-142.72 -90.3)"/><path class="cls-2" d="M499.38,801.34c-41.82,0-72.3-27.53-72.3-68.31s30.48-68.3,72.3-68.3h19.76c41.61,0,72.08,27.53,72.08,68.3s-30.47,68.31-72.08,68.31ZM521.66,766c19.12,0,33-13.45,33-33,0-19.75-13.87-33.2-33-33.2h-24.8c-19.13,0-33.21,13.45-33.21,33.2,0,19.55,13.87,33,33.21,33Z" transform="translate(-142.72 -90.3)"/><path class="cls-2" d="M737.09,801.34c-9.88,0-13.88-3.58-21-11.56L645.66,713.7v87.64H609.93V680.28c0-10.3,5.68-15.55,17-15.55h8.82c11.35,0,16,3.15,22.28,10.09l64.52,69.56V664.73H758.1V787.26c0,9.24-4.62,14.08-13.66,14.08Z" transform="translate(-142.72 -90.3)"/><path class="cls-2" d="M848.9,801.34c-41.82,0-72.3-27.53-72.3-68.31s30.48-68.3,72.3-68.3h19.76c41.61,0,72.08,27.53,72.08,68.3s-30.47,68.31-72.08,68.31ZM871.18,766c19.12,0,33-13.45,33-33,0-19.75-13.87-33.2-33-33.2h-24.8c-19.13,0-33.21,13.45-33.21,33.2,0,19.55,13.87,33,33.21,33Z" transform="translate(-142.72 -90.3)"/><path class="cls-1" d="M282.39,960.7V933.42h78.9c4.06,0,7-2.6,7-7.14s-2.92-7.31-7-7.31H314.86c-19.65,0-33.77-13-33.77-31.82,0-19.15,14.12-32,33.77-32h80.2v27.11h-78.9c-4.06,0-6.82,2.44-6.82,7s2.76,7.15,6.82,7.15h46.43c19.8,0,33.93,13.15,33.93,32,0,19.48-14.13,32.31-33.93,32.31Z" transform="translate(-142.72 -90.3)"/><path class="cls-1" d="M462,960.7c-32.31,0-55.85-21.27-55.85-52.77s23.54-52.76,55.85-52.76h15.26c32.14,0,55.68,21.27,55.68,52.76s-23.54,52.77-55.68,52.77Zm17.21-27.28c14.77,0,25.49-10.39,25.49-25.49,0-15.26-10.72-25.65-25.49-25.65H460c-14.77,0-25.65,10.39-25.65,25.65,0,15.1,10.71,25.49,25.65,25.49Z" transform="translate(-142.72 -90.3)"/><path class="cls-1" d="M556.62,960.7V855.17H655v27.11H585V960.7Zm37.82-40.27V896.57H654v23.86Z" transform="translate(-142.72 -90.3)"/><path class="cls-1" d="M703.54,960.7V882.28h-38.8V855.17h106v27.11H732V960.7Z" transform="translate(-142.72 -90.3)"/></svg>